<svg xmlns="http://www.w3.org/2000/svg" width="536.496" height="800" viewBox="0 0 536.496 800"><g transform="translate(-518.752 -72.619)"><g transform="translate(518.752 72.619)"><path d="M84.028,230.144a4.945,4.945,0,0,0,3.691-2.6l5.313-10.189,2.728-.384a14.107,14.107,0,0,0,12-15.929l-6.057-43.1-66.22,9.306,6.057,43.1a14.111,14.111,0,0,0,15.931,12h.025l7.916,8.332a4.945,4.945,0,0,0,4.268,1.488Z" transform="translate(22.009 29.547)" fill="#3f3d56"/><path d="M81.518,8.992c-43.343,6.091-73.955,44.134-68.239,84.8a70.928,70.928,0,0,0,12.813,31.657l-.064.009,1.772,2.278a145.518,145.518,0,0,1,29.013,65.773,13.448,13.448,0,0,0,15.222,11.172l61.254-8.608A16.048,16.048,0,0,0,147.159,180.4a179.88,179.88,0,0,1,10.3-56.835A71.8,71.8,0,0,0,170.488,71.7c-5.715-40.67-45.629-68.8-88.97-62.71M29.563,126.458l-.639-.845a68.8,68.8,0,0,1-13.49-32.119C9.885,54.011,39.668,17.069,81.822,11.144S162.786,32.519,168.335,72a69.648,69.648,0,0,1-12.74,50.418l-.141.266a182.133,182.133,0,0,0-10.477,57.668,13.883,13.883,0,0,1-12,13.548l-61.249,8.608a11.29,11.29,0,0,1-12.776-9.376,147.71,147.71,0,0,0-29.392-66.69Z" transform="translate(-12.592 -8.163)" fill="#090814"/><path d="M33.948,164.1l80.872-11.366a4.419,4.419,0,0,1,5.026,4.156l.412,8.434a46.941,46.941,0,0,1-3.665,20.614,2.991,2.991,0,0,1-2.7,1.82,286.406,286.406,0,0,0-70.3,9.84,2.991,2.991,0,0,1-3.257-1.186l-.664-.964a46.941,46.941,0,0,1-7.046-15.911l-2.358-10.055a4.419,4.419,0,0,1,3.686-5.377" transform="translate(16.264 28.226)" fill="#090814"/><path d="M65.5.025l-32.53,2.1c-4.876.313-10.25.076-14.888,1.825-4.495,1.7-8.092,6.083-7.276,11.083.782,4.782,4.588,8.243,8.958,9.9,4.848,1.837,10.214,2.582,15.264,3.692l15.806,3.48c2.506.551,5.035,1.044,7.527,1.66a4.557,4.557,0,0,1,2.258,1.027c-.009-.009.206.17.072.175-.025,0,0-.171,0-.182.149-.306.064-.009-.02-.019a5.884,5.884,0,0,1-1.3.413,18.4,18.4,0,0,1-3.586-.466q-3.78-.6-7.6-.923a114.533,114.533,0,0,0-15.408-.266,101.4,101.4,0,0,0-15.07,1.824c-4.8.976-10.028,3.376-10.916,8.782-.834,5.086,3.084,9.286,7.4,11.2a56.326,56.326,0,0,0,6.953,2.258l7.782,2.3,15.3,4.523,7.782,2.3c1.214.357,2.431.689,3.63,1.073.445.141.853.343,1.287.5-.292-.1.081-.05.011.011q.266.22.008-.054l-.1-.214c-.183-.9-.158-1.008.539-1.938.133-.178.321.045.05-.017s.182-.012-.149.073a3.752,3.752,0,0,1-.509.085c-1.275.167-2.585.163-3.868.234l-8,.433-15.74.855c-9.241.507-19.127,1.55-25.655,8.906A17.024,17.024,0,0,0,.246,82.183a3.342,3.342,0,0,0,1.7,4.292,3.293,3.293,0,0,0,4.292-1.7c2.88-8.094,12.419-9.806,20.142-10.342,5.12-.356,10.253-.575,15.377-.853,5.164-.286,10.383-.367,15.533-.851,2.165-.2,4.62-1.17,5.524-3.321a5.208,5.208,0,0,0-1.947-6.34c-1.972-1.4-4.5-1.845-6.766-2.517L46.574,58.33,31.263,53.816l-7.525-2.223a56.332,56.332,0,0,1-6.953-2.258A5.758,5.758,0,0,1,13.3,46.091a1.752,1.752,0,0,1,.069-1.389,4.131,4.131,0,0,1,1.711-1.744,16.65,16.65,0,0,1,5.6-1.537q3.646-.626,7.332-1.005a101.9,101.9,0,0,1,14.675-.468q3.825.159,7.627.6c2.4.274,4.774.758,7.173,1.02a9.439,9.439,0,0,0,7.295-1.755,6.422,6.422,0,0,0,2-7.1c-1.8-5.16-8.428-5.6-12.944-6.605L38.3,22.689c-4.844-1.063-9.865-1.853-14.611-3.289a11.767,11.767,0,0,1-4.964-2.59,4.419,4.419,0,0,1-1.442-3.837,5.007,5.007,0,0,1,3.055-2.9,20.154,20.154,0,0,1,6.191-1Q42.506,8.017,58.478,7.006L66.338,6.5A3.262,3.262,0,1,0,65.5.028Z" transform="translate(36.634 51.943) rotate(-14)" fill="#2563eb"/></g><path d="M619.853,199.113a107.568,107.568,0,0,1,3.275,13.7c.59,3.472.934,7.329-1.056,10.227,7.582-11.405,15.5-23.155,27.018-30.515a24.669,24.669,0,0,1-6.427-19.028c.066-.688-9.457,2.907-10.184,3.315-3.341,1.858-6.4,4.167-9.662,6.157-1.686,1.023-8.712,3.45-8.773,4.913,0,.942,2.792,3.824,3.315,4.814a37.4,37.4,0,0,1,2.5,6.421Z" transform="translate(359.822 178.628)" fill="#ed9da0"/><path d="M653.638,728.79a12.691,12.691,0,0,0-12.969-.982c-3.71,1.916-6.206,5.546-9.579,8-5.8,4.209-13.452,4.545-20.239,6.82-1.8.6-3.718,1.506-4.478,3.275a5.815,5.815,0,0,0,.336,4.566,11.808,11.808,0,0,0,5.616,5.789c3.044,1.458,6.554,1.522,9.923,1.564l29.311.344a240.076,240.076,0,0,1,27.024,1.334c2.088.262,4.347.549,6.188-.475,3-1.638,3.341-5.783,3.112-9.2a84.371,84.371,0,0,0-5.732-25.217c-.352-.893-.819-1.908-1.81-2.072a2.951,2.951,0,0,0-1.949.622c-8.268,4.913-18.742,7.689-27.535,3.754" transform="translate(361.27 79.104)" fill="#e6e6e6"/><path d="M62.414,275.476c-6.547.058-12.793-2.563-18.828-5.141a16.216,16.216,0,0,1-5.324-3.147c-1.458-1.484-13.41-105.563-15.5-110.126C19.71,150.4,7.508,105.76,6.327,96.97,4.975,86.826,5.262,76.535,5.648,66.3c.229-6.1.5-12.255.165-18.378a22,22,0,0,0-1.328-7.272c-1.165-2.794-1.3-5.491-1.868-8.538S1.232,26.376,1.4,23.277C1.688,18.146-.887,12.98.328,8,5.971,7.566,10.854,4.774,16.2,2.79A53.319,53.319,0,0,1,33.857.01,96.141,96.141,0,0,1,78.887,10.46a68.86,68.86,0,0,1,.821,14.781,18.146,18.146,0,0,1-1,5.78c-.92,2.362-2.645,4.3-3.894,6.5-2.645,4.657-3.089,10.327-5.858,14.9-1.068,1.759-2.46,3.318-3.418,5.135-1.641,3.111-1.906,6.732-2.107,10.233-.484,8.584-.876,17.2-2.456,25.665q-.238,1.268-.508,2.535a220.426,220.426,0,0,0,3.9,28.944,100.056,100.056,0,0,0,2.673,11.17c1.321,4.175,3.1,8.182,4.34,12.388,3.141,10.638,2.7,22.022,2.231,33.132L71.46,232.182c-.183,4.244-.349,8.586.934,12.629.51,1.641,1.143,3.685-.161,4.788a3.647,3.647,0,0,1-1.719.667,26.329,26.329,0,0,1-2.986.378c-.538,3.1-.665,6.531,1.665,8.5a5.63,5.63,0,0,1,1.41,1.315c.568.934.155,2.109-.253,3.117L67,271.873a5.764,5.764,0,0,1-2.263,3.177,5.057,5.057,0,0,1-2.051.432C62.595,275.482,62.5,275.48,62.414,275.476Z" transform="translate(967.771 553.462)" fill="#090814"/><path d="M638.76,745.386c-2.408,3-2.243,7.278-3.782,10.808-1.866,4.282-6.027,7.025-9.971,9.523l-24.562,15.556c-1.343.819-2.784,1.826-3.275,3.348a5.378,5.378,0,0,0,.123,2.942,12.757,12.757,0,0,0,8.581,8.712,25.368,25.368,0,0,0,6.641.68l11.045.147a64.68,64.68,0,0,0,10.078-.393c3.062-.443,6.043-1.319,9.088-1.874,5.546-1.008,11.241-.914,16.793-1.892a88.787,88.787,0,0,0,10.054-2.595c4.011-1.2,8.1-2.456,11.536-4.84a5.989,5.989,0,0,0,2.218-2.391,7.058,7.058,0,0,0-.065-4.336l-5.276-23.172a13.807,13.807,0,0,0-2.064-5.412c-1.171-1.556-3.275-2.587-5.1-1.928a10.8,10.8,0,0,0-2.117,1.278,13.021,13.021,0,0,1-9.359,1.513c-2.064-.368-4.79-.934-6.453-2.3-1.261-1.04-1.638-2.653-2.709-3.832a7.688,7.688,0,0,0-11.422.451Z" transform="translate(362.908 75.468)" fill="#e6e6e6"/><circle cx="29.583" cy="29.583" r="29.583" transform="translate(956.16 315.379)" fill="#ed9da0"/><path d="M600.477,156.639c2.753-1.109,2.832-6.165,5.732-7.689s6.188,1.122,8.049,3.791a34.875,34.875,0,0,1,5.527,12.994,6.537,6.537,0,0,0,1.506,3.7,5.8,5.8,0,0,0,3.587,1.171q5.608.557,11.233,1.014c4.176.336,6.3,4.782,10.089,2.99,1.5-.669,5.064-5.91,6-7.255a13.848,13.848,0,0,0,1.589-4.159c1.957-7.443,3.933-14.975,4.094-22.672.065-3.176-.213-6.467-1.744-9.252-.892-1.638-2.2-3.062-2.571-4.864-.2-.957-9.2-10.856-19.522-14.476s-20.772.019-21.76,0c-2.112-.04-4.291-.819-6.29-.115a4.094,4.094,0,0,1-2.341,5.863l.991,2.162a5.58,5.58,0,0,0-4.3,4.033c-1.088,4.3-.819,10.406-.557,14.828C599.919,140.641,599.362,154.289,600.477,156.639Z" transform="translate(360.701 191.697)" fill="#192534"/><path d="M624.621,207.84c-14.86,16.71-18.643,40.233-21.812,62.382l-4.667,32.7c-1.21,8.482,4.282,80,4.217,92.047.99-2.915,4.422-4.094,7.435-4.749a120.21,120.21,0,0,1,75.212,8.032c4.134-11.585,3.357-24.26,4.511-36.509,1.638-17.465.482-32.823,2.153-50.254.346-3.655-2.21-29.2-7.614-51.24s-10.429-31.588-14-36.933q-6.173-9.232-12.879-18.1c-2.265-3-9.342-6.078-11.7-9.009C643.188,193.365,629.514,202.332,624.621,207.84Z" transform="translate(363.548 175.253)" fill="#2563eb"/><path d="M636.865,379.892A80.238,80.238,0,0,1,626,379.547c-2.677-.262-5.412-.655-8.024,0a8.353,8.353,0,0,0-3.12,1.531,2.349,2.349,0,0,0,1.334,4.094l2.8.245c1.777.155,3.63.336,5.01,1.638a3.126,3.126,0,0,1,1.014,1.973c.171,1.908-1.482,2.947-2.964,3.742-2.107.989,19.864,10.948,25.275,8.4,6.494-3.013,10.938-9.5,12.731-16.425a12.627,12.627,0,0,0,.327-6.237c-1.2-4.659-6.952-5.731-10.644-3.48C645.207,377.9,642.579,379.712,636.865,379.892Z" transform="translate(359.816 142.291)" fill="#ed9da0"/><g transform="translate(672.388 178.497)"><path d="M273.659,164.287l-.659-.659,25.6-25.156h55.66l28.083-28.663h54.942L465,81.873H594.035v.935H465.391l-27.72,27.936H382.732l-28.083,28.663H298.981Z" transform="translate(-273 -58.803)" fill="#3f3d56"/><ellipse cx="4.673" cy="4.673" rx="4.673" ry="4.673" transform="translate(187.851 19.158)" fill="#090814"/><ellipse cx="23.832" cy="23.832" rx="23.832" ry="23.832" transform="translate(306.884)" fill="#2563eb"/><ellipse cx="4.673" cy="4.673" rx="4.673" ry="4.673" transform="translate(251.874 19.158)" fill="#090814"/><ellipse cx="4.673" cy="4.673" rx="4.673" ry="4.673" transform="translate(104.646 46.663)" fill="#090814"/><ellipse cx="4.673" cy="4.673" rx="4.673" ry="4.673" transform="translate(159.658 46.663)" fill="#090814"/><ellipse cx="4.673" cy="4.673" rx="4.673" ry="4.673" transform="translate(77.139 74.859)" fill="#090814"/><ellipse cx="4.673" cy="4.673" rx="4.673" ry="4.673" transform="translate(20.753 74.859)" fill="#090814"/></g></g></svg>